HIERARCHY
ROOT joint_Root
{
	OFFSET 0.0 0.0 0.0
	CHANNELS 6 Xposition Yposition Zposition Zrotation Xrotation Yrotation 
	JOINT Hips
	{
		OFFSET -0.726466 93.3139 -2.00062
		CHANNELS 6 Xposition Yposition Zposition Zrotation Xrotation Yrotation 
		JOINT Spine
		{
			OFFSET 15.7357 0.0 0.0
			CHANNELS 6 Xposition Yposition Zposition Zrotation Xrotation Yrotation 
			JOINT Chest
			{
				OFFSET 8.98455 -0.406207 0.0
				CHANNELS 6 Xposition Yposition Zposition Zrotation Xrotation Yrotation 
				JOINT Neck
				{
					OFFSET 16.3773 0.0 0.0
					CHANNELS 6 Xposition Yposition Zposition Zrotation Xrotation Yrotation 
					JOINT Head
					{
						OFFSET 6.45672 0.0 0.0
						CHANNELS 6 Xposition Yposition Zposition Zrotation Xrotation Yrotation 
						End Site
						{
							OFFSET 0.0 0.0 0.0
						}
					}
				}
				JOINT Shoulder_L
				{
					OFFSET 12.9942 -0.242716 4.98039
					CHANNELS 6 Xposition Yposition Zposition Zrotation Xrotation Yrotation 
					JOINT UpperArm_L
					{
						OFFSET 5.34809 0.0 0.0
						CHANNELS 6 Xposition Yposition Zposition Zrotation Xrotation Yrotation 
						JOINT LowerArm_L
						{
							OFFSET 24.3286 1.87007e-05 0.0
							CHANNELS 6 Xposition Yposition Zposition Zrotation Xrotation Yrotation 
							JOINT Hand_L
							{
								OFFSET 22.2916 0.0 0.0
								CHANNELS 6 Xposition Yposition Zposition Zrotation Xrotation Yrotation 
								End Site
								{
									OFFSET 0.0 0.0 0.0
								}
							}
						}
					}
				}
				JOINT Shoulder_R
				{
					OFFSET 12.9945 -0.242716 -4.98039
					CHANNELS 6 Xposition Yposition Zposition Zrotation Xrotation Yrotation 
					JOINT UpperArm_R
					{
						OFFSET -5.34813 0.0 0.0
						CHANNELS 6 Xposition Yposition Zposition Zrotation Xrotation Yrotation 
						JOINT LowerArm_R
						{
							OFFSET -24.3289 0.000322201 0.0
							CHANNELS 6 Xposition Yposition Zposition Zrotation Xrotation Yrotation 
							JOINT Hand_R
							{
								OFFSET -22.2915 -0.000108084 0.0
								CHANNELS 6 Xposition Yposition Zposition Zrotation Xrotation Yrotation 
								End Site
								{
									OFFSET 0.0 0.0 0.0
								}
							}
						}
					}
				}
			}
		}
		JOINT UpperLeg_L
		{
			OFFSET -2.19248 -6.46944 0.0
			CHANNELS 6 Xposition Yposition Zposition Zrotation Xrotation Yrotation 
			JOINT LowerLeg_L
			{
				OFFSET 39.0811 0.0 -1.23785e-05
				CHANNELS 6 Xposition Yposition Zposition Zrotation Xrotation Yrotation 
				JOINT Foot_L
				{
					OFFSET 40.9854 0.0 -1.26872e-05
					CHANNELS 6 Xposition Yposition Zposition Zrotation Xrotation Yrotation 
					JOINT Toes_L
					{
						OFFSET 11.7543 0.0 0.0
						CHANNELS 6 Xposition Yposition Zposition Zrotation Xrotation Yrotation 
						End Site
						{
							OFFSET 0.0 0.0 0.0
						}
					}
				}
			}
		}
		JOINT UpperLeg_R
		{
			OFFSET -2.19251 6.46944 0.0
			CHANNELS 6 Xposition Yposition Zposition Zrotation Xrotation Yrotation 
			JOINT LowerLeg_R
			{
				OFFSET -39.0811 -0.00228153 -0.0401928
				CHANNELS 6 Xposition Yposition Zposition Zrotation Xrotation Yrotation 
				JOINT Foot_R
				{
					OFFSET -40.9854 0.0 0.0
					CHANNELS 6 Xposition Yposition Zposition Zrotation Xrotation Yrotation 
					JOINT Toes_R
					{
						OFFSET -11.7543 0.0 0.0
						CHANNELS 6 Xposition Yposition Zposition Zrotation Xrotation Yrotation 
						End Site
						{
							OFFSET 0.0 0.0 0.0
						}
					}
				}
			}
		}
	}
}
MOTION
Frames:	4
Frame Time:	0.0333333
0.000000 0.000000 0.000000 0.000000 0.000000 -0.000000 -2.164910 92.017200 -2.621330 88.069900 -3.931470 4.557060 15.735700 0.000005 -0.000001 64.536400 86.357400 -61.072500 8.984550 -0.406207 -0.000000 -1.076520 -3.398570 6.894910 16.377300 -0.000001 -0.000001 1.492120 -0.456722 2.133050 6.456720 -0.000001 -0.000000 0.338953 1.480200 11.575300 12.994200 -0.242716 4.980390 -85.326400 -9.758150 -64.250400 5.348090 -0.000007 -0.000001 -67.452500 -54.953100 -108.812000 24.328600 0.000019 0.000005 2.410070 2.203820 -47.583000 22.291600 -0.000001 0.000005 14.806800 5.581450 -10.290200 12.994500 -0.242716 -4.980390 89.848700 0.411236 -69.807000 -5.348130 -0.000001 -0.000004 -34.882800 76.324100 -11.885100 -24.328900 0.000322 -0.000009 19.543600 1.661680 -85.330900 -22.291500 -0.000108 -0.000004 34.273300 5.676110 -23.743000 -2.192480 -6.469440 -0.000000 -168.412000 -15.509900 -0.796568 39.081100 -0.000007 -0.000012 -0.169112 0.441940 20.940000 40.985400 -0.000006 -0.000013 -6.812280 1.892780 -63.362800 11.754300 -0.000000 0.000003 -0.000032 -0.000378 -16.592300 -2.192510 6.469440 -0.000001 175.225000 16.899300 178.597000 -39.081100 -0.002282 -0.040193 -0.076267 0.205388 21.180900 -40.985400 0.000008 0.000006 -2.977590 2.656390 -63.795100 -11.754300 -0.000006 -0.000006 -0.007856 -0.086857 -20.109800
0.000000 0.000000 0.000000 0.000000 0.000000 -0.000000 -2.117770 92.019600 -2.558280 88.085800 -3.878710 4.532080 15.735700 0.000005 -0.000001 64.149900 86.358100 -60.678000 8.984550 -0.406207 -0.000000 -1.097510 -3.443460 6.909950 16.377300 -0.000001 -0.000001 1.446170 -0.464362 2.105340 6.456720 -0.000001 -0.000000 0.309796 1.475370 11.615500 12.994200 -0.242716 4.980390 -85.333700 -9.746710 -64.259400 5.348090 -0.000007 -0.000001 -67.517400 -54.944100 -108.881000 24.328600 0.000019 0.000005 2.351440 2.154050 -47.530900 22.291600 -0.000001 0.000005 14.862200 5.582140 -10.327100 12.994500 -0.242716 -4.980390 89.841400 0.430489 -69.775900 -5.348130 -0.000001 -0.000004 -35.094200 76.323100 -11.622300 -24.328900 0.000322 -0.000009 19.516600 1.642570 -85.377500 -22.291500 -0.000108 -0.000004 34.356200 5.676230 -23.714500 -2.192480 -6.469440 -0.000000 -168.471000 -15.481200 -0.782423 39.081100 -0.000007 -0.000012 -0.169560 0.443421 20.926600 40.985400 -0.000006 -0.000013 -6.794450 1.832500 -63.405900 11.754300 -0.000000 0.000003 -0.000026 -0.000313 -16.589800 -2.192510 6.469440 -0.000001 175.155000 16.975600 178.650000 -39.081100 -0.002282 -0.040193 -0.075438 0.203728 21.135600 -40.985400 0.000008 0.000006 -2.920940 2.713790 -63.814300 -11.754300 -0.000006 -0.000006 -0.007475 -0.083694 -19.980700
0.000000 0.000000 0.000000 0.000000 0.000000 -0.000000 -2.090010 92.003800 -2.519010 88.066500 -3.920910 4.498330 15.735700 0.000005 -0.000001 64.215700 86.351200 -60.724500 8.984550 -0.406207 -0.000000 -1.080760 -3.442920 6.948930 16.377300 -0.000001 -0.000001 1.444700 -0.486155 2.099090 6.456720 -0.000001 -0.000000 0.231260 1.425690 11.625000 12.994200 -0.242716 4.980390 -85.347500 -9.719900 -64.265100 5.348090 -0.000007 -0.000001 -67.632300 -54.990400 -109.025000 24.328600 0.000019 0.000005 2.349460 2.157530 -47.460700 22.291600 -0.000001 0.000005 14.831800 5.582300 -10.335800 12.994500 -0.242716 -4.980390 89.842200 0.427910 -69.758400 -5.348130 -0.000001 -0.000004 -35.135900 76.239700 -11.597900 -24.328900 0.000322 -0.000009 19.547500 1.638870 -85.395700 -22.291500 -0.000108 -0.000004 34.217300 5.676480 -23.658600 -2.192480 -6.469440 -0.000000 -168.465000 -15.539100 -0.846615 39.081100 -0.000007 -0.000012 -0.171833 0.446066 21.067800 40.985400 -0.000006 -0.000013 -6.771980 1.873050 -63.509300 11.754300 -0.000000 0.000003 -0.000033 -0.000388 -16.592700 -2.192510 6.469440 -0.000001 175.160000 16.929600 178.603000 -39.081100 -0.002282 -0.040193 -0.076617 0.206121 21.196900 -40.985400 0.000008 0.000006 -2.995260 2.690170 -63.853700 -11.754300 -0.000006 -0.000006 -0.007783 -0.086253 -20.085200
0.000000 0.000000 0.000000 0.000000 0.000000 -0.000000 -2.065180 92.007100 -2.495110 88.096000 -4.062870 4.471000 15.735700 0.000005 -0.000001 64.788200 86.359400 -61.294400 8.984550 -0.406207 -0.000000 -1.066160 -3.369960 6.955300 16.377300 -0.000001 -0.000001 1.449410 -0.494733 2.077340 6.456720 -0.000001 -0.000000 0.182266 1.414190 11.658600 12.994200 -0.242716 4.980390 -85.349000 -9.710090 -64.249800 5.348090 -0.000007 -0.000001 -67.719700 -54.997500 -109.126000 24.328600 0.000019 0.000005 2.406980 2.216410 -47.383800 22.291600 -0.000001 0.000005 14.861900 5.582590 -10.351500 12.994500 -0.242716 -4.980390 89.820400 0.486536 -69.737100 -5.348130 -0.000001 -0.000004 -35.014200 76.190200 -11.662400 -24.328900 0.000322 -0.000009 19.499300 1.625790 -85.420100 -22.291500 -0.000108 -0.000004 34.241300 5.676350 -23.688800 -2.192480 -6.469440 -0.000000 -168.486000 -15.699000 -0.773369 39.081100 -0.000007 -0.000012 -0.171143 0.445819 21.001200 40.985400 -0.000006 -0.000013 -6.757600 1.917400 -63.515900 11.754300 -0.000000 0.000003 -0.000027 -0.000327 -16.590300 -2.192510 6.469440 -0.000001 175.142000 16.729900 178.559000 -39.081100 -0.002282 -0.040193 -0.076964 0.207088 21.190300 -40.985400 0.000008 0.000006 -2.991510 2.652600 -63.848800 -11.754300 -0.000006 -0.000006 -0.007441 -0.083403 -19.968800
